<svg version="1.1" viewBox="0.0 0.0 288.0 288.0" fill="none" stroke="none" stroke-linecap="square" stroke-miterlimit="10" xmlns:xlink="http://www.w3.org/1999/xlink" xmlns="http://www.w3.org/2000/svg"><clipPath id="p.0"><path d="m0 0l288.0 0l0 288.0l-288.0 0l0 -288.0z" clip-rule="nonzero"/></clipPath><g clip-path="url(#p.0)"><path fill="#000000" fill-opacity="0.0" d="m0 0l288.0 0l0 288.0l-288.0 0z" fill-rule="evenodd"/><path fill="#ffffff" d="m0 0l288.0 0l0 288.0l-288.0 0z" fill-rule="evenodd"/><path fill="#a51c30" d="m130.62827 188.00029l0 -33.228333l101.165344 0l0 33.228333z" fill-rule="evenodd"/><path fill="#a51c30" d="m163.7385 121.48586l33.228348 0l0 101.16535l-33.228348 0z" fill-rule="evenodd"/><path fill="#293352" d="m123.713745 181.15028l-63.338585 0l63.338585 -63.37008z" fill-rule="evenodd"/><path fill="#293352" d="m156.89854 147.91757l-48.402527 0.1643982l-41.683136 -41.68313l0.16440582 -48.40253z" fill-rule="evenodd"/><path fill="#293352" d="m156.82457 147.85577l-33.763786 -33.511818l33.763786 -33.51181z" fill-rule="evenodd"/><path fill="#293352" d="m123.06078 114.56968l33.527565 -33.76378l33.527557 33.76378z" fill-rule="evenodd"/><path fill="#293352" d="m123.59652 114.6273l33.22834 0l0 33.22834l-33.22834 0z" fill-rule="evenodd"/></g></svg>